<?xml version="1.0" encoding="UTF-8" standalone="no"?>
<svg xmlns="http://www.w3.org/2000/svg" width="16" height="16" viewBox="0 0 60 32">
  <path d="M2,32 v-1 q2.8,0 3.4,-2 l7.8,-26 q0.8,-2 -1.4,-2 v-1 h10
    q0,16 3,22 q3,6 8,6 q4,0 7,-4 q3,-4 8.1,-21 q0.8,-2 -1.4,-2 v-1 h12
    v1 q-2.8,0 -3.4,2 q-7,21 -11,25 q-4,4 -10,4 q-8.1,0 -11.6,-10 q-2.1,-6 -2.1,-19
    l-7.8,26 q-0.8,2 1.4,2 v1 h-12 z" stroke="white" stroke-width="3.7"/>
  <rect x="-29" y="-1" width="58" height="2" transform="matrix(1, -0.1, 0.1, 1, 30, 16)"
    stroke="white" stroke-width="2.6"/>
  <path d="M2,32 v-1 q2.8,0 3.4,-2 l7.8,-26 q0.8,-2 -1.4,-2 v-1 h10
    q0,16 3,22 q3,6 8,6 q4,0 7,-4 q3,-4 8.1,-21 q0.8,-2 -1.4,-2 v-1 h12
    v1 q-2.8,0 -3.4,2 q-7,21 -11,25 q-4,4 -10,4 q-8.1,0 -11.6,-10 q-2.1,-6 -2.1,-19
    l-7.8,26 q-0.8,2 1.4,2 v1 h-12 z" stroke="none" fill="black" />
  <rect x="-29" y="-1" width="58" height="2" transform="matrix(1, -0.1, 0.1, 1, 30, 16)" />
</svg>
